<?xml version="1.0" encoding="utf-8"?>
<!-- Generator: Adobe Illustrator 17.1.0, SVG Export Plug-In . SVG Version: 6.00 Build 0)  -->
<!DOCTYPE svg PUBLIC "-//W3C//DTD SVG 1.1//EN" "http://www.w3.org/Graphics/SVG/1.1/DTD/svg11.dtd">
<svg version="1.1" id="Layer_2" xmlns="http://www.w3.org/2000/svg" xmlns:xlink="http://www.w3.org/1999/xlink" x="0px" y="0px"
	 viewBox="0 0 1776.7 278.9" enable-background="new 0 0 1776.7 278.9" xml:space="preserve">
<rect x="337.2" y="51.7" fill="#00628B" width="1439.5" height="4.7"/>
<rect x="337.2" y="222.7" fill="#00628B" width="1439.5" height="4.7"/>
<g>
	<path fill="#006189" d="M376.3,131.1c0,3.7-1,6.6-3.1,8.8c-2.1,2.2-4.9,3.2-8.4,3.2h-13.3v17.4h5.5v8.1h-19.7v-8.1h4.9v-41.9h-4.9
		v-8.1h28.9c3.1,0,5.5,1,7.3,2.9c1.8,1.9,2.7,4.5,2.7,7.7V131.1z M367,130.6v-7.3c0-3.1-1.2-4.7-3.5-4.7h-11.9v16.8h11.9
		C365.8,135.4,367,133.8,367,130.6z"/>
	<path fill="#006189" d="M423,158.1c0,3.2-0.9,5.8-2.8,7.7c-1.8,1.9-4.3,2.9-7.4,2.9h-16.5c-3.1,0-5.5-1-7.3-2.9
		c-1.8-1.9-2.7-4.5-2.7-7.7v-37.1c0-3.2,0.9-5.8,2.7-7.7c1.8-1.9,4.3-2.9,7.3-2.9h16.5c3.1,0,5.5,1,7.4,2.9c1.8,1.9,2.8,4.5,2.8,7.7
		V158.1z M413.7,155.8v-32.5c0-3.1-1.2-4.7-3.5-4.7h-11.1c-2.4,0-3.5,1.6-3.5,4.7v32.5c0,3.2,1.2,4.8,3.5,4.8h11.1
		C412.6,160.6,413.7,159,413.7,155.8z"/>
	<path fill="#006189" d="M471.6,168.7h-39.1v-7.5l27.2-42.5h-18v9.8h-9.1v-17.9h38.1v7.4l-27,42.7h19v-10h9.1V168.7z"/>
	<path fill="#006189" d="M529.6,118.6h-5v50.1h-8.9l-22.8-43.3c0.5,3.4,0.8,6.4,0.8,9v34.3H480v-8.1h5v-41.9h-5v-8.1h14.7l22.1,43.2
		c-0.5-3.5-0.7-6.4-0.7-8.9v-34.3h13.6V118.6z"/>
	<path fill="#006189" d="M585.4,168.7h-12.7l-4.5-18.4h-15.9l-4.4,18.4h-11.4v-8.1h4.4l13.3-50.1h13.4l13.3,50.1h4.5V168.7z
		 M566.3,142.6l-6-25.4l-6.2,25.4H566.3z"/>
	<path fill="#006189" d="M642,118.6h-5v50.1h-8.9l-22.8-43.3c0.5,3.4,0.8,6.4,0.8,9v34.3h-13.6v-8.1h5v-41.9h-5v-8.1h14.7l22.1,43.2
		c-0.5-3.5-0.7-6.4-0.7-8.9v-34.3H642V118.6z"/>
	<path fill="#006189" d="M720.7,118.6h-5.1v37.7c0,3.8-1.1,6.8-3.2,9.1c-2.1,2.2-5,3.4-8.6,3.4h-12.9c-3.6,0-6.4-1.1-8.6-3.4
		c-2.1-2.2-3.2-5.3-3.2-9.1v-37.7h-5v-8.1h14.3v45.3c0,3.2,1.1,4.8,3.4,4.8h11.7c2.3,0,3.5-1.6,3.5-4.8v-45.3h13.7V118.6z"/>
	<path fill="#006189" d="M778.1,118.6h-5v50.1h-8.9l-22.8-43.3c0.5,3.4,0.8,6.4,0.8,9v34.3h-13.6v-8.1h5v-41.9h-5v-8.1h14.7
		l22.1,43.2c-0.5-3.5-0.7-6.4-0.7-8.9v-34.3h13.6V118.6z"/>
	<path fill="#006189" d="M805.1,168.7h-19.2v-8.1h4.9v-41.9h-4.9v-8.1h19.2v8.1h-4.9v41.9h4.9V168.7z"/>
	<path fill="#006189" d="M860.1,118.6h-4.9l-13.4,50.1h-11.3l-13.3-50.1h-4.9v-8.1h12.4l11.6,46.6l11.5-46.6h12.5V118.6z"/>
	<path fill="#006189" d="M907.7,168.7h-40.4v-8.1h4.9v-41.9h-4.9v-8.1h39.7v18h-8.1v-9.9h-17.3v16.1H900v7.8h-18.5v18h17.9v-10.4
		h8.3V168.7z"/>
	<path fill="#006189" d="M960.6,168.7h-14.3v-20.8c0-3.2-1.1-4.8-3.4-4.8h-12.2v25.6h-14.3v-8.1h4.9v-41.9h-4.9v-8.1h28.9
		c3.1,0,5.5,1,7.3,2.9c1.8,1.9,2.7,4.5,2.7,7.7v9.4c0,4.6-2.6,7.3-7.8,8.1c3,0.7,5,1.9,6.2,3.6c1.2,1.6,1.8,4.1,1.8,7.3v11.2h4.9
		V168.7z M946.2,130.6v-7.3c0-3.1-1.2-4.7-3.5-4.7h-11.9v16.8h11.9C945,135.4,946.2,133.8,946.2,130.6z"/>
	<path fill="#006189" d="M1003.6,158.1c0,3.2-0.9,5.8-2.7,7.7c-1.8,1.9-4.3,2.9-7.3,2.9h-25.4v-17.1h9.5v9h13.2
		c2.3,0,3.5-1.6,3.5-4.8v-7.5c0-3.2-1.2-4.8-3.5-4.8h-12c-3.1,0-5.5-1-7.3-2.9c-1.8-1.9-2.7-4.5-2.7-7.7v-11.9
		c0-3.2,0.9-5.8,2.7-7.7c1.8-1.9,4.3-2.9,7.3-2.9h23.9v15.6h-9.1v-7.5h-12c-2.3,0-3.5,1.6-3.5,4.7v6.8c0,3.2,1.2,4.8,3.5,4.8h12
		c3.1,0,5.5,1,7.3,2.9c1.8,1.9,2.7,4.5,2.7,7.7V158.1z"/>
	<path fill="#006189" d="M1032,168.7h-19.2v-8.1h4.9v-41.9h-4.9v-8.1h19.2v8.1h-4.9v41.9h4.9V168.7z"/>
	<path fill="#006189" d="M1084.9,126.9h-8.6v-8.2h-9.2v41.9h5.5v8.1h-20.2v-8.1h5.5v-41.9h-9.3v8.2h-8.6v-16.4h45V126.9z"/>
	<path fill="#006189" d="M1137.5,118.6h-4.9l-12.9,23.8v18.1h5.2v8.1h-19.8v-8.1h5.3v-17.7l-13.1-24.2h-4.9v-8.1h11.7l11.4,23.8
		l11.3-23.8h10.8V118.6z"/>
	<path fill="#006189" d="M1207.4,158.1c0,3.2-0.9,5.8-2.8,7.7c-1.8,1.9-4.3,2.9-7.4,2.9h-16.5c-3.1,0-5.5-1-7.3-2.9
		c-1.8-1.9-2.7-4.5-2.7-7.7v-37.1c0-3.2,0.9-5.8,2.7-7.7c1.8-1.9,4.3-2.9,7.3-2.9h16.5c3.1,0,5.5,1,7.4,2.9c1.8,1.9,2.8,4.5,2.8,7.7
		V158.1z M1198.1,155.8v-32.5c0-3.1-1.2-4.7-3.5-4.7h-11.1c-2.4,0-3.5,1.6-3.5,4.7v32.5c0,3.2,1.2,4.8,3.5,4.8h11.1
		C1197,160.6,1198.1,159,1198.1,155.8z"/>
	<path fill="#006189" d="M1255,128.5h-8.8v-9.9h-15.3v16.1h19.2v8.1h-19.2v17.7h5.5v8.1h-19.8v-8.1h4.9v-41.9h-4.9v-8.1h38.4V128.5z
		"/>
	<path fill="#006189" d="M1332.2,126.9h-8.6v-8.2h-9.2v41.9h5.5v8.1h-20.2v-8.1h5.5v-41.9h-9.3v8.2h-8.6v-16.4h45V126.9z"/>
	<path fill="#006189" d="M1380.7,168.7h-40.4v-8.1h4.9v-41.9h-4.9v-8.1h39.7v18h-8.1v-9.9h-17.3v16.1h18.5v7.8h-18.5v18h17.9v-10.4
		h8.3V168.7z"/>
	<path fill="#006189" d="M1426.1,168.7h-25.3c-3.1,0-5.5-1-7.3-2.9c-1.8-1.9-2.7-4.5-2.7-7.7v-37.1c0-3.2,0.9-5.8,2.7-7.7
		c1.8-1.9,4.3-2.9,7.3-2.9h25.3v18.3h-8.2v-10.1h-14.3c-2.3,0-3.5,1.6-3.5,4.7v32.5c0,3.2,1.2,4.8,3.5,4.8h14.3v-10.3h8.2V168.7z"/>
	<path fill="#006189" d="M1480.2,168.7H1466v-25.4h-17.3v25.4h-14.3v-8.1h4.9v-41.9h-4.9v-8.1h14.3v25.4h17.3v-25.4h14.3v8.1h-4.9
		v41.9h4.9V168.7z"/>
	<path fill="#006189" d="M1537.7,118.6h-5v50.1h-8.9l-22.8-43.3c0.5,3.4,0.8,6.4,0.8,9v34.3h-13.6v-8.1h5v-41.9h-5v-8.1h14.7
		l22.1,43.2c-0.5-3.5-0.7-6.4-0.7-8.9v-34.3h13.6V118.6z"/>
	<path fill="#006189" d="M1583.5,158.1c0,3.2-0.9,5.8-2.8,7.7c-1.8,1.9-4.3,2.9-7.4,2.9h-16.5c-3.1,0-5.5-1-7.3-2.9
		c-1.8-1.9-2.7-4.5-2.7-7.7v-37.1c0-3.2,0.9-5.8,2.7-7.7c1.8-1.9,4.3-2.9,7.3-2.9h16.5c3.1,0,5.5,1,7.4,2.9c1.8,1.9,2.8,4.5,2.8,7.7
		V158.1z M1574.2,155.8v-32.5c0-3.1-1.2-4.7-3.5-4.7h-11.1c-2.4,0-3.5,1.6-3.5,4.7v32.5c0,3.2,1.2,4.8,3.5,4.8h11.1
		C1573,160.6,1574.2,159,1574.2,155.8z"/>
	<path fill="#006189" d="M1630.7,168.7h-38.1v-8.1h4.9v-41.9h-4.9v-8.1h19.6v8.1h-5.4v41.9h15.4v-11.7h8.4V168.7z"/>
	<path fill="#006189" d="M1676.1,158.1c0,3.2-0.9,5.8-2.8,7.7c-1.8,1.9-4.3,2.9-7.4,2.9h-16.5c-3.1,0-5.5-1-7.3-2.9
		c-1.8-1.9-2.7-4.5-2.7-7.7v-37.1c0-3.2,0.9-5.8,2.7-7.7c1.8-1.9,4.3-2.9,7.3-2.9h16.5c3.1,0,5.5,1,7.4,2.9c1.8,1.9,2.8,4.5,2.8,7.7
		V158.1z M1666.8,155.8v-32.5c0-3.1-1.2-4.7-3.5-4.7h-11.1c-2.4,0-3.5,1.6-3.5,4.7v32.5c0,3.2,1.2,4.8,3.5,4.8h11.1
		C1665.7,160.6,1666.8,159,1666.8,155.8z"/>
	<path fill="#006189" d="M1722.7,168.7h-26.1c-3.1,0-5.5-1-7.3-2.9c-1.8-1.9-2.7-4.5-2.7-7.7v-37.1c0-3.2,0.9-5.8,2.7-7.7
		c1.8-1.9,4.3-2.9,7.3-2.9h25.5v17.7h-8.4v-9.6h-14.3c-2.3,0-3.5,1.6-3.5,4.7v32.5c0,3.2,1.2,4.8,3.5,4.8h14.3v-17.1h-9.6v-8.1h18.5
		V168.7z"/>
	<path fill="#006189" d="M1776.7,118.6h-4.9l-12.9,23.8v18.1h5.2v8.1h-19.8v-8.1h5.3v-17.7l-13.1-24.2h-4.9v-8.1h11.7l11.4,23.8
		l11.3-23.8h10.8V118.6z"/>
</g>
<g>
	<path fill-rule="evenodd" clip-rule="evenodd" fill="#00628B" d="M278.7,138.4c0,76.4-61.9,138.4-138.4,138.4
		C63.9,276.7,2,214.8,2,138.4C2,61.9,63.9,0,140.4,0C216.8,0,278.7,61.9,278.7,138.4L278.7,138.4z"/>
	<path fill="#FFFFFF" d="M245.2,95.8L244,93l6.5-1L245.2,95.8L245.2,95.8z M241,102.8l1.9-0.8l-0.4-1.1l10.4-8l-1.3-3.1l-13,1.8
		l-0.4-1l-1.9,0.8l1.1,2.6l4.7-0.8l1.6,3.7l-3.8,2.8L241,102.8L241,102.8z"/>
	<path fill="#FFFFFF" d="M235.4,89.9l1.8-1l-0.6-1.1l3.1-1.8c1.4-0.8,1.8-2.2,1.1-3.6l-0.7-1.3l5.2,0.3l0.9,1.5l1.8-1l-1.5-2.5
		l-7.7-0.1l5.7-3.3l-1.8-3.1l-1.8,1l0.6,1.1l-9.2,5.3l-0.6-1.1l-1.8,1l1.8,3.1l5.5-3.2l1.5,2.7c0.3,0.5,0.1,1-0.6,1.4l-4.5,2.6
		L235.4,89.9L235.4,89.9z"/>
	<path fill="#FFFFFF" d="M230.5,76.4l2.6-1.9c1.3-1,1.6-2.4,0.7-3.6l-1.8-2.5c-0.4-0.5-0.2-1,0.4-1.4l1.4-1c0.7-0.5,1.1-0.5,1.5,0
		l1.8,2.5l-1.5,1.1l1.4,1.9l3.2-2.3l-3.6-4.9c-0.9-1.2-2.3-1.5-3.7-0.5l-2.4,1.8c-1.3,1-1.6,2.4-0.7,3.6l1.8,2.4
		c0.4,0.5,0.2,1-0.5,1.4l-1.5,1.1c-0.6,0.5-1.1,0.5-1.5,0l-2-2.7l1.8-1.3l-1.4-1.9l-3.5,2.6l3.8,5.2
		C227.7,77.2,229.1,77.4,230.5,76.4L230.5,76.4z"/>
	<path fill="#FFFFFF" d="M230.9,60.5l1.5-1.4l-2.4-2.5l-6.2,6c-0.5,0.4-1,1-1.5,1.7l4-11.6l-2.6-2.7l-1.5,1.4l0.9,0.9l-7.6,7.4
		l-0.9-0.9l-1.5,1.4l2.4,2.5l6.2-6c0.5-0.4,1-1,1.5-1.7l-3.8,11.8l1.6,1.6l9.1-8.8L230.9,60.5L230.9,60.5z M232.9,53.6l-1.6-1.7
		l-3.2,1l1.3,1.3L232.9,53.6L232.9,53.6z"/>
	<path fill="#FFFFFF" d="M212.1,59.4l1.3-1.6l-0.9-0.7l5.4-11.9l-2.6-2.1l-10.6,7.7l-0.9-0.7l-1.3,1.6l2.2,1.8l3.8-2.9l3.1,2.6
		l-2.1,4.3L212.1,59.4L212.1,59.4z M212.6,51.2l-2.4-1.9l5.3-4L212.6,51.2L212.6,51.2z"/>
	<path fill="#FFFFFF" d="M208.7,40.4l1.1-1.8l-2.9-1.8l-4.5,7.4c-0.3,0.5-0.7,1.2-1,2l0.9-12.2l-3.2-1.9l-1.1,1.8l1.1,0.7l-5.5,9
		l-1.1-0.7l-1.1,1.8l2.9,1.8l4.5-7.4c0.3-0.5,0.7-1.2,1-2l-0.8,12.4l1.9,1.2l6.6-10.8L208.7,40.4L208.7,40.4z"/>
	<polygon fill="#FFFFFF" points="189.5,43.6 191.4,39.5 189.3,38.5 188.3,40.8 183.9,38.8 194.6,31.8 195.4,30.1 186.7,26.1 
		184.8,30.2 186.9,31.2 187.9,29 192.1,30.9 181.3,37.8 180.5,39.5 189.5,43.6 	"/>
	<path fill="#FFFFFF" d="M177.2,34.8c-0.3,0.8-0.6,1.1-1.2,0.9l-2.6-0.9c-0.6-0.2-0.7-0.7-0.5-1.4l2.6-7.8c0.3-0.8,0.6-1,1.2-0.8
		l2.6,0.9c0.6,0.2,0.7,0.6,0.4,1.4L177.2,34.8L177.2,34.8z M179.3,36.1l3-8.9c0.5-1.6-0.1-2.9-1.6-3.4l-4-1.3
		c-1.5-0.5-2.7,0.1-3.3,1.7l-3,8.9c-0.5,1.6,0.1,2.8,1.6,3.3l4,1.3C177.4,38.3,178.7,37.6,179.3,36.1L179.3,36.1z"/>
	<path fill="#FFFFFF" d="M167.3,25.2c-0.2,0.8-0.5,1.1-1.1,1l-3-0.6l0.8-4.1l3,0.6c0.6,0.1,0.8,0.5,0.6,1.3L167.3,25.2L167.3,25.2z
		 M169.6,25.8l0.5-2.5c0.3-1.6-0.4-2.8-2-3.1l-7.2-1.5l-0.4,2l1.2,0.2l-2.1,10.4l-1.2-0.2l-0.4,2l4.9,1l0.4-2l-1.4-0.3l0.9-4.3
		l3.3,0.7C167.9,28.5,169.2,27.6,169.6,25.8L169.6,25.8z"/>
	<path fill="#FFFFFF" d="M143.5,25.2l-3.1,0l1.7-6.4L143.5,25.2L143.5,25.2z M148.3,31.8l0-2.1l-1.2,0L144,17.1l-3.4,0L137,29.7
		l-1.1,0l0,2.1l2.9,0l1.2-4.6l4,0.1l1.1,4.7L148.3,31.8L148.3,31.8z"/>
	<path fill="#FFFFFF" d="M134.5,31.7l-0.2-2l-1.2,0.1l-0.4-3.5c-0.2-1.6-1.3-2.6-2.8-2.4l-1.5,0.2l2.4-4.6l1.7-0.2l-0.2-2.1
		l-2.9,0.3l-3.2,7l-0.7-6.6l-3.6,0.4l0.2,2.1l1.2-0.1l1.2,10.5l-1.2,0.1l0.2,2l3.6-0.4l-0.7-6.3l3-0.3c0.6-0.1,0.9,0.3,1,1.1
		l0.6,5.2L134.5,31.7L134.5,31.7z"/>
	<polygon fill="#FFFFFF" points="121.5,33.4 121.1,31.4 119.9,31.6 117.8,21.2 119,21 118.6,18.9 113.9,19.9 114.3,21.9 115.5,21.7 
		117.6,32.1 116.3,32.3 116.7,34.3 121.5,33.4 	"/>
	<path fill="#FFFFFF" d="M111.3,22.5l-0.6-2l-3.3,1l2.6,8.3c0.2,0.6,0.5,1.3,0.8,2.1l-8.5-8.8l-3.5,1.1l0.6,2l1.2-0.4l3.1,10.1
		l-1.2,0.4l0.6,2l3.3-1l-2.5-8.3c-0.2-0.6-0.5-1.3-0.8-2.1l8.8,8.8l2.1-0.7l-3.7-12.1L111.3,22.5L111.3,22.5z"/>
	<polygon fill="#FFFFFF" points="101,39.1 100.2,37.3 99,37.8 94.6,28.2 95.7,27.7 94.8,25.8 91.5,27.3 94.3,33.1 90.3,35 
		87.6,29.2 84.3,30.7 85.2,32.5 86.3,32 90.8,41.6 89.7,42.2 90.5,44 93.8,42.5 91.1,36.7 95.1,34.8 97.8,40.7 101,39.1 	"/>
	<path fill="#FFFFFF" d="M88.5,45.1l-2.4-4l-1.8,1.1l1.3,2.2l-3.1,1.9c-0.5,0.3-1,0.1-1.4-0.6l-4.2-7c-0.4-0.7-0.4-1.2,0.2-1.5
		l3.1-1.9l1.3,2.2l1.8-1.1l-2.4-4l-5.5,3.3c-1.3,0.8-1.7,2.2-0.8,3.6l4.8,8c0.8,1.4,2.2,1.8,3.6,1L88.5,45.1L88.5,45.1z"/>
	<polygon fill="#FFFFFF" points="79,51.1 76.1,47.4 74.4,48.7 76,50.8 72.5,53.6 69.7,50 73.4,47.1 72.2,45.5 68.4,48.4 66,45.2 
		69.4,42.5 70.9,44.5 72.6,43.2 69.7,39.7 61.8,45.8 63.1,47.5 64.1,46.7 70.6,55 69.6,55.8 70.9,57.4 79,51.1 	"/>
	<polygon fill="#FFFFFF" points="62.2,50.9 59.3,48 51.2,56 54.1,58.9 55.6,57.4 54.2,55.9 55.9,54.3 63.3,61.8 62.3,62.8 
		63.7,64.3 67.4,60.7 66,59.2 65,60.2 57.5,52.6 59.2,51 60.7,52.5 62.2,50.9 	"/>
	<polygon fill="#FFFFFF" points="60.5,67.6 58.9,66.3 58.1,67.3 50,60.4 50.8,59.4 49.3,58.1 46.1,61.8 47.7,63.2 48.5,62.2 
		56.6,69.1 55.8,70 57.3,71.4 60.5,67.6 	"/>
	<polygon fill="#FFFFFF" points="55.8,73.2 51.7,70.3 50.5,72.1 52.9,73.8 50.7,77 42,70.9 42.8,69.8 41.1,68.6 38.2,72.7 
		39.9,73.8 40.7,72.8 49.3,78.9 48.6,79.9 50.3,81.1 55.8,73.2 	"/>
	<path fill="#FFFFFF" d="M45,83.5c0.7,0.4,1,0.8,0.7,1.3l-1.3,2.5c-0.3,0.6-0.8,0.6-1.5,0.2l-7.2-3.8c-0.7-0.4-0.9-0.8-0.6-1.3
		l1.3-2.5c0.3-0.6,0.7-0.6,1.5-0.2L45,83.5L45,83.5z M46.7,81.7l-8.3-4.4c-1.5-0.8-2.8-0.4-3.6,1l-2,3.7c-0.7,1.4-0.3,2.7,1.2,3.5
		l8.3,4.4c1.4,0.8,2.8,0.4,3.6-1l2-3.7C48.6,83.8,48.1,82.5,46.7,81.7L46.7,81.7z"/>
	<path fill="#FFFFFF" d="M33.7,91.9c0.7,0.3,1,0.7,0.8,1.3L33.4,96l-3.9-1.5l1.1-2.8c0.2-0.6,0.7-0.7,1.4-0.4L33.7,91.9L33.7,91.9z
		 M34.6,89.8l-2.4-0.9c-1.5-0.6-2.9,0-3.4,1.4l-2.7,6.8l1.9,0.7l0.5-1.2l9.9,3.8l-0.5,1.2l1.9,0.7l1.8-4.6L39.8,97l-0.5,1.3
		l-4.1-1.6l1.2-3.1C37.1,91.9,36.4,90.5,34.6,89.8L34.6,89.8z"/>
	<polygon fill="#FFFFFF" points="248.5,125.9 246.4,126.1 246.6,128.8 252.8,131.3 246.9,134.5 247.1,137.5 249.1,137.4 
		249.1,136.1 255,132.4 259.5,132.2 259.5,133.5 261.6,133.4 261.3,128.4 259.2,128.5 259.3,129.8 254.7,130.1 248.5,127.2 
		248.5,125.9 	"/>
	<path fill="#FFFFFF" d="M261.7,140l-8.4-0.4l-0.2,4.7l2.1,0.1l0.1-2.4l4.3,0.2l-0.2,3.6c0,0.6-0.4,0.9-1.2,0.8l-8.2-0.3
		c-0.8,0-1.2-0.3-1.2-0.9l0.2-3.6l2.4,0.1l0.1-2.1l-4.5-0.2l-0.3,6.4c-0.1,1.5,0.9,2.6,2.6,2.7l9.4,0.4c1.6,0.1,2.7-0.9,2.8-2.4
		L261.7,140L261.7,140z"/>
	<path fill="#FFFFFF" d="M257.3,154.8c0.8,0.1,1.2,0.4,1.1,1.1l-0.4,2.8c-0.1,0.6-0.5,0.8-1.3,0.7l-8.1-1.3c-0.8-0.1-1.1-0.4-1-1.1
		l0.4-2.8c0.1-0.6,0.5-0.8,1.3-0.7L257.3,154.8L257.3,154.8z M258.3,152.6l-9.2-1.5c-1.6-0.3-2.8,0.6-3.1,2.1l-0.7,4.1
		c-0.2,1.5,0.6,2.7,2.2,2.9l9.3,1.5c1.6,0.3,2.8-0.6,3-2.1l0.7-4.1C260.8,154,259.9,152.8,258.3,152.6L258.3,152.6z"/>
	<polygon fill="#FFFFFF" points="258.8,165.2 253.9,163.9 253.4,166 256.3,166.7 255.2,170.5 245,167.8 245.3,166.5 243.3,166 
		242.1,170.7 244.1,171.3 244.4,170.1 254.6,172.8 254.3,174 256.3,174.5 258.8,165.2 	"/>
	<path fill="#FFFFFF" d="M251.1,179.5c0.8,0.3,1,0.7,0.8,1.2l-1,2.6c-0.2,0.6-0.7,0.7-1.4,0.4l-7.7-2.9c-0.8-0.3-1-0.7-0.8-1.3
		l1-2.6c0.2-0.6,0.7-0.7,1.4-0.4L251.1,179.5L251.1,179.5z M252.5,177.5l-8.8-3.3c-1.6-0.6-2.9,0-3.4,1.4l-1.5,3.9
		c-0.5,1.4,0.1,2.8,1.6,3.3l8.8,3.3c1.5,0.6,2.8,0,3.4-1.4l1.5-3.9C254.6,179.4,254,178.1,252.5,177.5L252.5,177.5z"/>
	<path fill="#FFFFFF" d="M238.8,184.7l-1.8-1l-1.7,3l7.6,4.2c0.6,0.3,1.2,0.6,2,0.9l-12.3-0.4l-1.8,3.3l1.8,1l0.6-1.1l9.3,5.1
		l-0.6,1.1l1.8,1l1.7-3l-7.6-4.2c-0.6-0.3-1.3-0.6-2.1-0.9l12.4,0.2l1.1-2l-11.1-6.1L238.8,184.7L238.8,184.7z"/>
	<polygon fill="#FFFFFF" points="241.6,205.4 240,204.2 239.3,205.2 230.7,198.8 231.5,197.8 229.8,196.6 227.7,199.5 232.8,203.3 
		230.2,206.9 225.1,203 222.9,205.9 224.6,207.1 225.3,206.1 233.8,212.5 233.1,213.5 234.7,214.7 236.9,211.8 231.7,208 
		234.3,204.5 239.5,208.3 241.6,205.4 	"/>
	<path fill="#FFFFFF" d="M232.1,217.9l-3.4-3.1l-1.4,1.5l1.9,1.8l-2.4,2.7c-0.4,0.5-0.9,0.4-1.5-0.2l-6.1-5.5
		c-0.6-0.5-0.7-1-0.3-1.5l2.4-2.7l1.9,1.7l1.4-1.5l-3.4-3.1l-4.3,4.7c-1,1.1-1,2.6,0.3,3.7l6.9,6.3c1.2,1.1,2.7,1,3.7-0.1
		L232.1,217.9L232.1,217.9z"/>
	<polygon fill="#FFFFFF" points="223.1,227.2 220,223.7 218.4,225 220.1,227 216.7,230 213.7,226.5 217.3,223.5 216,222 212.4,225 
		209.8,221.9 213.1,219.1 214.8,221 216.3,219.6 213.4,216.2 205.7,222.7 207.1,224.3 208,223.5 214.9,231.5 214,232.3 215.3,233.9 
		223.1,227.2 	"/>
	<polygon fill="#FFFFFF" points="206.6,227.3 204.3,223.8 194.8,230.2 197.1,233.6 198.9,232.4 197.8,230.7 199.7,229.4 
		205.6,238.2 204.5,238.9 205.6,240.6 209.9,237.8 208.7,236.1 207.6,236.9 201.7,228.1 203.6,226.8 204.8,228.5 206.6,227.3 	"/>
	<polygon fill="#FFFFFF" points="189.4,238.2 187.6,234 178.7,238 179.5,239.9 180.7,239.4 184.9,249.1 183.8,249.6 184.6,251.4 
		189.2,249.4 188.4,247.5 187.1,248.1 185.3,244 189.7,242 188.9,240.2 184.4,242.1 182.8,238.4 186.4,236.8 187.4,239.1 
		189.4,238.2 	"/>
	<polygon fill="#FFFFFF" points="159.7,245.4 159.4,243.4 156.7,243.7 154.6,250.1 151,244.5 148.1,244.8 148.3,246.9 149.6,246.7 
		153.6,252.4 154.2,256.8 152.9,257 153.1,259 158.1,258.4 157.8,256.4 156.5,256.5 156,252 158.4,245.6 159.7,245.4 	"/>
	<polygon fill="#FFFFFF" points="146.8,249 146.7,244.9 135.4,245 135.4,249.1 137.6,249.1 137.6,247 139.9,247 140,257.6 
		138.6,257.6 138.6,259.7 143.7,259.6 143.7,257.6 142.3,257.6 142.2,247 144.6,247 144.6,249 146.8,249 	"/>
	<polygon fill="#FFFFFF" points="132.3,259.4 132.5,257.4 131.3,257.3 132.2,246.7 133.5,246.8 133.6,244.8 128.8,244.4 
		128.6,246.4 129.8,246.5 128.9,257.1 127.7,257 127.5,259 132.3,259.4 	"/>
	<path fill="#FFFFFF" d="M124,256l0.6-3.2c0.3-1.6-0.5-2.8-2-3.1l-3-0.6c-0.6-0.1-0.8-0.6-0.7-1.4l0.3-1.7c0.1-0.8,0.5-1.1,1.1-1
		l3,0.6l-0.3,1.8l2.3,0.4l0.7-3.9l-5.9-1.1c-1.5-0.3-2.7,0.5-3,2.2l-0.6,2.9c-0.3,1.6,0.5,2.8,2,3.1l3,0.6c0.6,0.1,0.8,0.5,0.7,1.4
		l-0.3,1.9c-0.1,0.8-0.5,1.1-1.1,1l-3.3-0.6l0.4-2.2l-2.4-0.4l-0.8,4.3l6.3,1.2C122.6,258.5,123.7,257.6,124,256L124,256z"/>
	<path fill="#FFFFFF" d="M112.2,256.6l0.6-2l-1.2-0.4l0.8-2.7c0.5-1.5,0.2-2.4-1.2-3.2c1.3,0.2,2.1-0.2,2.5-1.4l0.7-2.3
		c0.5-1.6-0.2-2.9-1.7-3.3l-7-2.1l-0.6,2l1.2,0.4l-3,10.2l-1.2-0.4l-0.6,2l3.5,1l1.8-6.2l3,0.9c0.6,0.2,0.7,0.6,0.5,1.4l-1.5,5
		L112.2,256.6L112.2,256.6z M111.4,246.3c-0.2,0.8-0.6,1.1-1.2,0.9l-2.9-0.9l1.2-4l2.9,0.9c0.6,0.2,0.8,0.6,0.5,1.4L111.4,246.3
		L111.4,246.3z"/>
	<polygon fill="#FFFFFF" points="98,252.2 99.9,247.9 97.9,247.1 96.9,249.5 92.7,247.7 94.5,243.5 98.9,245.4 99.6,243.5 
		95.3,241.7 96.9,238 101,239.7 100,242 101.9,242.8 103.7,238.6 94.4,234.6 93.6,236.5 94.8,237 90.6,246.8 89.4,246.3 88.6,248.2 
		98,252.2 	"/>
	<polygon fill="#FFFFFF" points="91.8,235.8 92.8,234 90.1,232.4 81.7,241.2 85,229.5 82.3,227.9 81.2,229.7 82.3,230.4 79,243 
		81.5,244.4 90.7,235.1 91.8,235.8 	"/>
	<polygon fill="#FFFFFF" points="72.3,238.8 73.4,237.2 72.4,236.4 78.6,227.8 79.6,228.5 80.8,226.9 76.9,224 75.7,225.7 
		76.7,226.4 70.5,235 69.5,234.3 68.3,236 72.3,238.8 	"/>
	<path fill="#FFFFFF" d="M73.9,224.5l1.4-1.6l-2.6-2.2l-5.7,6.6c-0.4,0.5-0.9,1.1-1.3,1.8l3-11.9l-2.8-2.4l-1.4,1.6l0.9,0.8l-7,8
		l-0.9-0.8l-1.3,1.5l2.6,2.2l5.7-6.5c0.4-0.5,0.9-1.1,1.4-1.8L63,231.7l1.7,1.5l8.3-9.6L73.9,224.5L73.9,224.5z"/>
	<path fill="#FFFFFF" d="M63,214.8l1.6-1.4l-2.3-2.6l-8.6,7.6c-0.6,0.5-1.1,0.6-1.5,0.1l-1.9-2.2c-0.4-0.5-0.3-0.9,0.3-1.5l8.6-7.6
		l-2.4-2.7l-1.6,1.4l0.8,1l-7.1,6.3c-1.4,1.3-1.6,3-0.4,4.3l2.2,2.5c1.2,1.4,2.9,1.5,4.3,0.2l7.1-6.3L63,214.8L63,214.8z"/>
	<path fill="#FFFFFF" d="M49.7,198.5l1.8-1l-1.7-3l-7.5,4.4c-0.5,0.3-1.2,0.7-1.8,1.3l6.6-10.3l-1.9-3.2l-1.8,1l0.6,1.1l-9.2,5.3
		l-0.6-1.1l-1.8,1l1.7,3l7.5-4.4c0.5-0.3,1.2-0.8,1.9-1.3l-6.5,10.5l1.1,1.9l10.9-6.4L49.7,198.5L49.7,198.5z"/>
	<path fill="#FFFFFF" d="M35.4,184.7l-1.2-2.8l6.5-1.1L35.4,184.7L35.4,184.7z M31.2,191.7l1.9-0.8l-0.5-1.1l10.3-8l-1.3-3.1
		l-13,1.9l-0.4-1l-1.9,0.8l1.1,2.6l4.7-0.8l1.6,3.7l-3.8,2.9L31.2,191.7L31.2,191.7z"/>
	<path fill="#FFFFFF" d="M37.8,174.8l2-0.6l-1-3.3l-8.3,2.4c-0.6,0.2-1.3,0.4-2.1,0.8l8.9-8.4l-1-3.6l-2,0.6l0.3,1.2l-10.2,3
		l-0.3-1.2l-2,0.6l1,3.3l8.3-2.4c0.6-0.2,1.3-0.4,2.1-0.8l-8.9,8.6l0.6,2.1l12.1-3.5L37.8,174.8L37.8,174.8z"/>
	<polygon fill="#FFFFFF" points="21.3,162.4 25.9,161.7 25.5,159.4 23,159.8 22.3,155.1 34,160.1 35.8,159.8 34.3,150.3 29.8,151 
		30.2,153.3 32.6,152.9 33.4,157.4 21.7,152.3 19.8,152.6 21.3,162.4 	"/>
	<path fill="#FFFFFF" d="M22.5,146.5c-0.8,0-1.2-0.2-1.3-0.8l-0.1-2.8c0-0.6,0.4-0.9,1.2-1l8.2-0.4c0.8,0,1.2,0.2,1.2,0.8l0.1,2.8
		c0,0.6-0.3,0.9-1.1,0.9L22.5,146.5L22.5,146.5z M22,148.9l9.4-0.5c1.7-0.1,2.6-1.1,2.6-2.7l-0.2-4.2c-0.1-1.5-1.1-2.5-2.8-2.4
		l-9.4,0.5c-1.6,0.1-2.6,1.1-2.5,2.7l0.2,4.2C19.3,148,20.4,149,22,148.9L22,148.9z"/>
	<path fill="#FFFFFF" d="M28.6,134.1c-0.8-0.1-1.2-0.4-1.1-1l0.2-3l4.2,0.3l-0.2,3c0,0.6-0.4,0.9-1.3,0.8L28.6,134.1L28.6,134.1z
		 M28.3,136.5l2.5,0.2c1.7,0.1,2.8-0.8,2.9-2.3l0.6-7.3l-2.1-0.2l-0.1,1.2l-10.6-0.8l0.1-1.2l-2-0.2l-0.4,5l2,0.2l0.1-1.4l4.4,0.3
		l-0.3,3.3C25.4,135.1,26.4,136.3,28.3,136.5L28.3,136.5z"/>
	<path fill="#FFFFFF" d="M178.2,250.2c0.3,0.8,0.2,1.2-0.5,1.4l-2.7,0.9c-0.6,0.2-1-0.1-1.2-0.9l-2.6-7.8c-0.3-0.8-0.1-1.2,0.5-1.4
		l2.7-0.9c0.6-0.2,0.9,0.1,1.2,0.9L178.2,250.2L178.2,250.2z M180.7,250l-2.9-8.9c-0.5-1.6-1.8-2.2-3.3-1.7l-4,1.3
		c-1.5,0.5-2.1,1.8-1.6,3.4l2.9,8.9c0.5,1.6,1.8,2.2,3.3,1.7l4-1.3C180.5,252.9,181.2,251.6,180.7,250L180.7,250z"/>
	<path fill-rule="evenodd" clip-rule="evenodd" fill="#FFFFFF" d="M219.9,150.9c0.7-4.2,1-8.4,1-12.5c0-2.1-0.1-4.1-0.3-6.3
		l13.9-4.5l1.1-0.3l-0.1-1.1c-1.3-9.9-4.1-19.5-8.3-28.5l-0.5-1.1l-1.1,0.4l-13.6,4.4c-3.1-5.9-6.9-11.5-11.3-16.4l8.5-11.7l0.7-0.9
		l-0.8-0.8c-7-7.1-15-13.1-23.8-17.8l-1-0.5l-0.7,0.9l-8.5,11.6c-6.2-2.9-12.7-5.1-19.4-6.3V44.9v-1.2l-1.2-0.2c-4.6-0.7-9.3-1-14-1
		c-5.2,0-10.5,0.4-15.7,1.3l-1.1,0.2v1.1v14.5c-6.5,1.4-12.9,3.6-19,6.6l-8.4-11.6l-0.7-1l-1,0.6c-8.7,4.8-16.7,10.9-23.5,18.1
		l-0.8,0.8l0.7,0.9l8.6,11.8c-4.2,4.9-7.7,10.2-10.6,15.8l-13.6-4.4L53.9,97l-0.5,1.1c-4.2,9.1-6.9,18.7-8.2,28.6l-0.1,1.1l1.1,0.3
		l13.9,4.5c-0.1,2.1-0.2,4-0.2,5.8c0,4,0.3,8,0.9,12l-13.6,4.4l-1.1,0.4l0.2,1.2c1.9,9.8,5.2,19.2,10,28l0.5,1l1.1-0.3l13.9-4.5
		c2.9,4.7,6.3,9.2,10.2,13.3l-8.5,11.6l-0.7,0.9l0.8,0.8c7.2,7,15.3,12.7,24.2,17.2l1,0.5l0.7-0.9l8.5-11.7c5,2.2,10.2,3.9,15.5,5
		v14.5v1.1l1.1,0.2c5.2,0.9,10.5,1.3,15.7,1.3c4.7,0,9.4-0.3,14-1l1.2-0.2v-1.2v-14.4c5.5-1,10.8-2.6,15.9-4.8l8.6,11.8l0.7,0.9
		l1-0.5c9-4.3,17.2-9.9,24.5-16.8l0.9-0.8l-0.7-1l-8.4-11.6c4.1-4.2,7.8-8.8,10.9-13.8l13.9,4.5l1.1,0.3l0.5-1
		c4.8-8.7,8.3-18.1,10.2-27.9l0.2-1.2l-1.1-0.4L219.9,150.9L219.9,150.9z M222.4,182.5l-13.8-4.5l-1-0.3l-0.6,0.9
		c-3.3,5.5-7.3,10.5-11.8,15l-0.8,0.8l0.7,0.9l8.4,11.5c-6.6,6-13.9,11.1-21.9,15l-8.5-11.7l-0.6-0.9l-1,0.4
		c-5.5,2.4-11.4,4.2-17.4,5.2l-1.1,0.2v1.1v14.3c-4.1,0.6-8.3,0.8-12.4,0.8c-4.7,0-9.5-0.4-14.1-1.1V216v-1.1l-1.1-0.2
		c-5.8-1.2-11.5-3-17-5.5l-1-0.5l-0.6,0.9l-8.5,11.7c-7.9-4.1-15.2-9.2-21.7-15.4l8.4-11.6l0.7-0.9l-0.8-0.8
		c-4.3-4.4-8-9.3-11.1-14.5l-0.6-0.9l-1,0.3L58.1,182c-4.2-7.9-7.2-16.3-9-25l13.6-4.4l1.1-0.4l-0.2-1.1c-0.7-4.2-1.1-8.5-1.1-12.7
		c0-2,0.1-4.2,0.3-6.6l0.1-1.1l-1-0.3l-13.8-4.5c1.2-8.8,3.6-17.4,7.3-25.6l13.5,4.4l1.1,0.4l0.5-1c3-6.2,6.9-11.9,11.5-17.1
		l0.7-0.8l-0.6-0.9l-8.5-11.7c6.2-6.4,13.3-11.9,21.1-16.2l8.4,11.5l0.7,0.9l1-0.5c6.5-3.3,13.3-5.7,20.4-7.1l1.1-0.2v-1.1V46.3
		c4.7-0.7,9.4-1.1,14.1-1.1c4.1,0,8.3,0.3,12.4,0.8v14.3v1.1l1.1,0.2c7.3,1.3,14.3,3.6,20.8,6.8l1,0.5l0.7-0.9l8.4-11.6
		c7.8,4.3,15,9.6,21.3,15.9l-8.5,11.7L197,85l0.7,0.8c4.8,5.3,8.9,11.2,12.2,17.7l0.5,1l1.1-0.4l13.6-4.4c3.7,8.1,6.2,16.7,7.4,25.5
		l-13.8,4.5l-1,0.3l0.1,1.1c0.2,2.5,0.3,4.8,0.3,7.1c0,4.4-0.4,8.8-1.1,13.2l-0.2,1.2l1.1,0.4l13.6,4.4
		C229.7,166.2,226.6,174.6,222.4,182.5L222.4,182.5z"/>
	<path fill-rule="evenodd" clip-rule="evenodd" fill="#FFFFFF" d="M159.1,87.4c-2.2,0.5-4-0.3-4.6-1.2c-0.7-0.9,0.2-3.6,1-3.5
		c0.8,0.1,0.1,0.6-0.1,1.8c-0.2,1.2,0.5,1.6,0.5,1.6c7-5.3,1.6-7,1.6-7c1.9-2.3,0.8-5.6,0.8-5.6c-4.4,1.4-4.4,4.9-4.4,4.9
		c-1-1.6-3.8-0.6-4.5,1c-0.7,1.6-0.5,5.9-0.5,5.9c2.8,0.6,2.2-3.1,3.2-3.2c1-0.1,1.6,3.4-3.1,4.3c-4.8,0.9-6-1.8-6.6-3.4
		c-0.5-1.5,1.2-2.8,1.6-0.8c0.4,2.1,2,2.8,2,2.8c-0.6-1.5,1.8-3.8,1.6-6.4c-0.2-2.6-4.6-1.2-4.6-1.2c0.6-1.3,0.3-2.6-0.1-3.8
		c-0.3-0.7-0.7-1.3-1-1.8v-2.5h2v-2.6h-2v-1.5h-2.6v1.5h-2v2.6h2V72c-0.3,0.5-0.7,1.1-1,1.7c-0.5,1.2-0.7,2.5-0.1,3.8
		c0,0-4.4-1.4-4.7,1.2c-0.2,2.6,2.3,4.9,1.6,6.4c0,0,1.6-0.8,2.1-2.8c0.4-2.1,2.2-0.8,1.6,0.8c-0.5,1.5-1.8,4.2-6.6,3.4
		c-4.8-0.9-4.2-4.4-3.1-4.3c1,0.1,0.4,3.8,3.2,3.2c0,0,0.1-4.4-0.5-5.9c-0.7-1.6-3.5-2.6-4.5-1c0,0-0.1-3.5-4.4-4.9
		c0,0-1.1,3.4,0.8,5.6c0,0-5.5,1.6,1.6,7c0,0,0.8-0.3,0.5-1.6c-0.2-1.2-0.9-1.7-0.1-1.8c0.8-0.1,1.6,2.6,1,3.5
		c-0.7,0.9-2.4,1.7-4.7,1.2c-4.9-1.1-1.2-8.8-7.7-9.6c0,0,3.4,8.3,7.5,13.2h37.6c4.1-4.9,7.5-13.2,7.5-13.2
		C160.3,78.6,163.9,86.3,159.1,87.4L159.1,87.4z"/>
	<path fill-rule="evenodd" clip-rule="evenodd" fill="#FFFFFF" d="M154.2,112.8c-0.8-0.1-2-0.4-2.3-1c0.3-0.6,0.7-1.7,0.7-3
		c0-0.7-0.1-1.5-0.5-2.2c-0.3-0.8-0.8-1.4-1.6-1.7c-0.6-0.3-1.2-0.5-1.8-0.5c-2.1,0-3.8,1.7-3.8,3.8c0,1.4,0.8,2.6,2,3.3
		c0,0,0,0,0,0c-0.3,0-1.4,0.1-1.4,0.1l-0.1,0.2c0,0-0.1,0.2-0.1,0.4c0,0.2,0,0.4,0.2,0.6c0.1,0.1,0.2,0.2,0.4,0.3
		c-0.1,0.1-0.1,0.1-0.1,0.2c-0.3,0-1.5,0.1-1.5,0.1l0,0.3c0,0,0,0.1,0,0.1c0,0.3,0.1,0.7,0.4,1c0,0.1-0.1,0.1-0.1,0.1
		c-0.2,0-1.1,0-1.1,0c0,0-0.5-0.1-0.8-0.1c-0.1-0.2-1.1-1.3-1.2-1.4c-0.3-1-0.4-1.7-0.4-2.2c0-1.1,0.4-1.4,0.4-1.4
		c1-0.4,1.2-0.7,1.2-1c0.1-0.3,0.2-0.6,0.2-0.9c0-0.2-0.1-0.5-0.2-0.7c-0.1-0.2-0.2-0.4-0.4-0.5v0c-0.6-0.6-1.4-1-2-1
		c-0.2,0-0.5,0-0.6,0.3c-0.1,0.1-0.2,0.2-0.3,0.2c-0.1,0-0.3-0.1-0.3-0.3c0,0-0.1-0.5-0.5-1.1c-0.1,0-0.1-0.1-0.2-0.2
		c-0.8-0.4-1.8-0.3-2.5,0.2c-0.8,0.6-1.2,1.5-1.1,2.6l0.1,0.7l0.5-0.5c0.6-0.6,2.1,0.5,2.7,1c0,0.3-0.2,3.2-0.2,3.4
		c-1,1-2,2.2-2.3,2.6c-0.2,0-0.8,0.1-0.8,0.1s-0.8,0-1,0c0,0-0.1-0.1-0.1-0.1c0.3-0.3,0.4-0.7,0.4-1c0,0,0-0.1,0-0.1l0-0.3
		c0,0-1.2-0.1-1.5-0.1c0-0.1-0.1-0.1-0.1-0.2c0.2-0.1,0.3-0.2,0.4-0.3c0.1-0.2,0.2-0.4,0.2-0.6c0-0.2,0-0.3-0.1-0.4l-0.1-0.2
		c0,0-1.1-0.1-1.4-0.1c0,0,0,0,0,0c1.2-0.7,2-1.9,2-3.3c0-2.1-1.7-3.8-3.8-3.8c-0.6,0-1.3,0.2-1.8,0.5c-0.7,0.3-1.3,0.9-1.6,1.7
		c-0.3,0.7-0.5,1.5-0.5,2.2c0,1.3,0.4,2.5,0.7,3.1c-0.3,0.5-1.6,0.9-2.3,1l-0.4,0l0.1,0.4c0.3,1.4,1.5,1.9,3.4,1.5
		c0.3-0.1,0.6-0.2,0.8-0.5c0.1,0.2,0.3,0.4,0.3,0.5c0,0.2-0.3,3.1-0.3,3.1c-0.1,0.7-1.7,1.1-2.5,1.2l-0.4,0l0.1,0.4
		c0.4,1.4,1.5,1.9,3.4,1.5c1-0.2,1.8-1.3,2.3-3.1c0,0.1,0.1,0.1,0.1,0.1c-0.1,0.6-0.3,4.2-0.5,5.3c-0.1,0.7-1.7,1.1-2.5,1.2l-0.4,0
		l0.1,0.4c0.4,1.4,1.5,1.9,3.4,1.5c2.1-0.5,2.6-4.1,2.8-5.5c0,0.3,0,4.3,0,4.3s0.4,0.1,0.4,0.1c0,0,0,0.1,0,0.1c0,0.1,0,0.1,0,0.2
		c-0.6,1.2-1.2,2.7-1.5,3.3c-2-0.3-3.7,0.7-3.8,0.8l0.7,1.2c0,0,0.6-0.4,1.4-0.5c-0.5,0.5-0.9,1-1.1,1.6l1.4,0.4
		c0.2-0.6,1.3-1.5,2.1-2c0.1-0.1,0.1-0.1,0.2-0.2c0.4-0.1,1.5-0.1,2.6-0.1l0.1-1.5c-0.8,0-1.5,0-2,0l1.2-2.6c0,0,0,0,0.1,0
		c0.2,0.1,0.5,0.3,0.5,0.3s0.8-0.3,1.1-0.4c0.1,0.2,0.2,0.6,0.2,1.7c0,0.5,0,1.1-0.1,1.9c-0.1,0.9-0.4,1.6-1,2
		c-1.2,0.8-2.9,0.4-3,0.4l-0.6-0.1l0.3,0.6c0.5,1.2,1.3,1.9,2.2,2.1c0.8,0.2,1.6-0.2,2.2-0.5c0,0.2,0,0.4,0,0.5c0,1.7,1.1,3,1.2,3.1
		l0.2,0.3l0.2-0.3c0.1-0.1,1.2-1.4,1.2-3.1c0-0.2,0-0.3-0.1-0.5c0.6,0.3,1.4,0.7,2.2,0.5c0.9-0.2,1.6-0.9,2.2-2.1l0.2-0.6l-0.6,0.1
		c0,0-1.8,0.4-3-0.4c-0.6-0.4-0.9-1.1-1-2c-0.1-0.8-0.1-1.4-0.1-1.9c0-1.1,0.1-1.5,0.2-1.7c0.3,0.1,1.1,0.4,1.1,0.4s0.2-0.1,0.3-0.2
		l1.3,2.6c-0.5,0-1.1,0-1.9,0l0.1,1.5c1.2,0,2.4,0,2.7,0.1c0,0.1,0.1,0.1,0.1,0.2c0.8,0.4,1.9,1.4,2.1,2l1.4-0.4
		c-0.2-0.6-0.6-1.1-1.1-1.6c0.8,0.2,1.4,0.5,1.4,0.5l0.8-1.2c-0.1-0.1-1.8-1.1-3.8-0.8c-0.3-0.6-0.9-1.9-1.5-3
		c0.1-0.2,0.1-0.4,0.1-0.5c0,0,0-0.1,0-0.1c0.1,0,0.4-0.1,0.4-0.1s0-4,0-4.3c0.2,1.4,0.7,5,2.8,5.5c1.8,0.4,3-0.1,3.4-1.5l0.1-0.4
		l-0.4,0c-0.8-0.1-2.4-0.5-2.5-1.2c-0.1-1-0.4-4.6-0.5-5.3c0,0,0.1-0.1,0.1-0.1c0.5,1.8,1.3,2.8,2.3,3.1c1.8,0.4,3-0.1,3.4-1.5
		l0.1-0.4l-0.4,0c-0.8-0.1-2.4-0.5-2.5-1.2c0,0-0.2-2.6-0.3-3.1c0.1-0.1,0.2-0.3,0.3-0.5c0.3,0.2,0.5,0.4,0.8,0.5
		c1.8,0.4,3-0.1,3.4-1.5l0.1-0.4L154.2,112.8L154.2,112.8z M144.3,130.1L144.3,130.1C144.3,130.1,144.3,130.1,144.3,130.1
		L144.3,130.1L144.3,130.1z M143.3,106.4l0.4,0.2l0.7-1.3l-0.9-0.5l0.5-0.9l-1.2-0.7l-0.5,0.9l-0.9-0.5l-0.7,1.2l0.2,0.1
		C141.8,105.2,142.7,105.7,143.3,106.4L143.3,106.4z"/>
	<path fill-rule="evenodd" clip-rule="evenodd" fill="#FFFFFF" d="M116.7,130.8c0.6,1.9,1.3,4.2,1.3,4.4c0.1,0.2,1.9,2.2,2.8,3.3
		l0.8-0.2l0.3-3.4C121.4,134.6,118.5,132.3,116.7,130.8L116.7,130.8z M114.6,134.3c0-0.1-0.1-0.2-0.2-0.2c-0.1,0-0.2,0.1-0.2,0.2
		c0,0.1,0.1,0.2,0.2,0.2C114.5,134.5,114.6,134.4,114.6,134.3L114.6,134.3z M106.3,126.4l-5.8-4.7l-2.6-0.4l1.1,2.5l5.7,4.7
		L106.3,126.4L106.3,126.4z M109.7,135.1c0,0,2.5-1.4,2.8-1.6c0.1-0.2,0.5-0.9,0.6-1.1c0-0.2,0-0.4,0-0.8c-0.6-0.1-1.2-0.3-1.7-0.4
		c-0.4,0.7-1.9,3.1-1.9,3.1l-3.8,0.8l-0.3-1.4c0,0,0.8-0.2,1.7-0.3l0,0l1.3-1.6l-3.8-3.1l-2.8,3.7l3.2,6
		C106.5,137.4,109.6,135.2,109.7,135.1L109.7,135.1z M114.9,129.9l1.1-1.5l5.2,4.1l-2.2-5.5l-4-1c2.9-1.3,4.9-4.2,4.9-7.5
		c0-4.5-3.7-8.2-8.2-8.2c-4.5,0-8.2,3.7-8.2,8.2c0,3.4,2,6.2,4.9,7.5l-1.5-0.2l-0.5,0.7l4,3.1l1.3-1.5l1.1,0.9l-0.7,0.8l2.7,0.7
		l-0.1,2.1c0.8,0.1,1.5,0.8,1.5,1.7c0,0.9-0.8,1.7-1.7,1.7c-0.6,0-1.2-0.4-1.5-0.9c-0.8,0.5-2.4,1.4-2.4,1.4c0,0-4.5,3.2-5.2,3.7
		l-0.2,2.5l-1,12.9h15.5l0.3-11.6l0.1-4.1l-3.3-3.8L114.9,129.9L114.9,129.9z M113.2,119.5c0.5-0.8,0.9-1.8,0.9-2.1
		c0-1.1-1-1.9-2.2-1.9c-1.2,0-2.2,0.9-2.2,1.9h-2.6c0-2.5,2.1-4.6,4.8-4.6c2.6,0,4.8,2.1,4.8,4.6c0,1.2-1,3-1.3,3.5L113.2,119.5
		L113.2,119.5z"/>
	<path fill-rule="evenodd" clip-rule="evenodd" fill="#FFFFFF" d="M163.2,135.7c0,0.7,0,1.6,0,2.4c0.7,0,1.6,0,2.4,0
		c0-0.7,0-1.6,0-2.4C164.8,135.7,163.9,135.7,163.2,135.7L163.2,135.7z M175.3,128.3l1.4,1.4l3-3.1l-1.4-1.4l-1.5-0.1l0.8-0.9
		l-1.1-1.1l-3.8,4.1l-0.4-0.4c-0.6-0.2-2.9-1.1-3.1-1.2c-0.3,0-4.3,0.2-4.4,0.2c-0.1,0-2.6,0.7-3.3,0.9c-0.1,0.8-0.2,1.6-0.2,1.7
		l-1.5,10.3l0,2.5l0.2,14.5h15.6l-1.3-14.8l-0.3-3.7l-4.1-0.4l-2.9-1.1l0,3.8l-5.3,0l0-5.3l3.8,0l-0.9-1.7l2.3-1.5l0.4-0.2
		c0,0,0.6,0.3,1.3,0.7l4.1-4.2l1,1l-3.8,3.8c0.4,0.2,0.8,0.4,1,0.5c0.4-0.2,1-0.5,1-0.5l0.7,1.3l-1.6,0.9c0,0-3-1.5-3.6-1.8
		c-0.3,0.2-0.5,0.3-0.9,0.6c0.2,0.5,0.4,0.9,0.6,1.2c0.5,0.2,2.9,1.1,3.1,1.1c0.1,0,2.3,0.2,4,0.4l2.2-0.2l-1.6-6.3l-1-0.9l1.4-1.4
		L175.3,128.3L175.3,128.3z M161.6,124.8c0,0.1,0,0.1,0,0.2c0.1,0,0.1,0.1,0.1,0.1l2.8-0.8l4.7-0.2l0.1,0l2.1,0.8
		c2-1.5,3.3-3.8,3.3-6.5c0-4.5-3.7-8.2-8.2-8.2c-4.6,0-8.2,3.7-8.2,8.2c0,0.2,0,0.4,0,0.6L161.6,124.8L161.6,124.8z M167.1,112.8
		c2.6,0,4.8,2.1,4.8,4.6c0,1.2-1,3-1.3,3.5l-2.3-1.4c0.5-0.8,0.9-1.8,0.9-2.1c0-1.1-1-1.9-2.2-1.9c-1.2,0-2.2,0.9-2.2,1.9h-2.6
		C162.3,114.9,164.4,112.8,167.1,112.8L167.1,112.8z M160.2,125.8l-0.1-0.8c-0.5-0.9-1.8-3.2-2.7-4.9v7.5l-1.8,4.6l0.2,4.2l2.9,0.3
		c0.4-3,1.3-8.6,1.3-8.6C159.9,128.2,160.1,126.6,160.2,125.8L160.2,125.8z"/>
	<path fill-rule="evenodd" clip-rule="evenodd" fill="#FFFFFF" d="M138.6,178.9v1h-1v1.4h1v1h1.4v-1h1v-1.4h-1v-1H138.6L138.6,178.9
		z M146.5,181.5l-1,0l0.8-0.9l-1.1-0.9l-5.8,7l-5.8-7l-1.1,0.9l0.8,0.9l-1.1,0l-0.1,0.1l-1.4,1.2l2.8,3.3l1.5-1.2l0.2-1.1l3.4,4.1
		l-3,3.6l-5.2,0.5l0.6,6.2l6.2-0.6l-0.5-5.2l2.8-3.4l2.8,3.4l-0.5,5.2l6.2,0.6l0.6-6.2l-5.2-0.5l-3-3.6l3.4-4.1l0.2,1.1l1.5,1.2
		l2.8-3.3l-1.5-1.2L146.5,181.5L146.5,181.5z M135.1,192.8c0.1,0.8,0.2,2.5,0.3,3.3c-0.8,0.1-2.5,0.2-3.3,0.3
		c-0.1-0.9-0.2-2.5-0.3-3.3C132.6,193.1,134.3,192.9,135.1,192.8L135.1,192.8z M143.5,192.8c0.8,0.1,2.5,0.2,3.3,0.3
		c-0.1,0.9-0.2,2.5-0.3,3.3c-0.8-0.1-2.5-0.2-3.3-0.3C143.3,195.3,143.4,193.7,143.5,192.8L143.5,192.8z"/>
	<path fill-rule="evenodd" clip-rule="evenodd" fill="#FFFFFF" d="M188.4,93.6H91v64.1c0,24.5,22.6,45.3,49.4,45.3
		c12.5,0,25-4.8,34.3-13.2c9.7-8.7,15.1-20.1,15.1-32V93.6H188.4L188.4,93.6z M171.8,166.2c0,1,0,3.6,0,3.6h-7.4c0,0,0-2.5,0-3.6
		c-1.3,0-2.8,0-4.1,0c0,1,0,3.6,0,3.6h-7.4c0,0,0-2.5,0-3.6c-1.3,0-2.8,0-4.1,0c0,1,0,3.6,0,3.6h-7.4c0,0,0-2.5,0-3.6
		c-1.3,0-2.8,0-4.1,0c0,1,0,3.6,0,3.6h-7.4c0,0,0-2.5,0-3.6c-1.3,0-2.8,0-4.1,0c0,1,0,3.6,0,3.6h-7.4c0,0,0-2.5,0-3.6
		c-1.3,0-2.8,0-4.1,0c0,1,0,3.6,0,3.6h-7.4c0,0,0-2.5,0-3.6c-1.3,0-4.1,0-5.4,0v4.4h2.1v13c-6.2-7.2-9.9-16.2-9.9-25.8
		c0,0,0-58.9,0-61.4c2.5,0,91,0,93.5,0c0,2.5,0,61.4,0,61.4c0,10.3-4.2,20.1-12,28v-15.1h2.1v-4.4
		C175.9,166.2,173.1,166.2,171.8,166.2L171.8,166.2z M120,195.9c0-0.1,0-0.2,0-0.3c0-3.5,0.8-6.7,2.3-9.6
		c3.3-6.4,9.7-10.8,17.1-10.8c7.7,0,14.4,4.8,17.5,11.8c1.2,2.6,1.8,5.5,1.8,8.6c0,0.4,0,0.7,0,1c-5.8,2.4-12.1,3.7-18.3,3.7
		C133.1,200.3,126.2,198.7,120,195.9L120,195.9z M132.5,167.1c0.9,0,1.3,0,2.1,0c0-1,0-3.5,0-3.5h9.4c0,0,0,2.5,0,3.5
		c0.9,0,1.3,0,2.1,0c0-1,0-3.5,0-3.5h3.1v-13.9l2.8-3.6v-5.9H148v3.6h-3v-3.6h-4.1v3.6h-3v-3.6h-4.1v3.6h-3v-3.6h-4.1v5.9l2.8,3.6
		v13.9h3C132.5,163.6,132.5,166.1,132.5,167.1L132.5,167.1z M167,167.1c0.9,0,1.3,0,2.1,0c0-1,0-3.5,0-3.5h1.3h4.7v-5.8h-15.6v5.8
		h7.5C167,163.6,167,166.1,167,167.1L167,167.1z M109.5,167.1c0.9,0,1.3,0,2.1,0c0-1,0-3.5,0-3.5h7.5v-5.8h-15.6v5.8h6
		C109.5,163.6,109.5,166.1,109.5,167.1L109.5,167.1z"/>
	<path fill-rule="evenodd" clip-rule="evenodd" fill="#FFFFFF" d="M9.2,138.4C9.2,66,68,7.2,140.4,7.2
		c72.3,0,131.2,58.9,131.2,131.2c0,72.3-58.8,131.2-131.2,131.2C68,269.5,9.2,210.7,9.2,138.4L9.2,138.4z M6.6,138.4
		c0,73.8,60,133.8,133.8,133.8c73.8,0,133.8-60,133.8-133.8c0-73.8-60-133.8-133.8-133.8C66.6,4.6,6.6,64.6,6.6,138.4L6.6,138.4z"/>
</g>
</svg>
